<?xml version="1.0" encoding="UTF-8"?>
<svg xmlns="http://www.w3.org/2000/svg" xmlns:xlink="http://www.w3.org/1999/xlink" viewBox="0 0 50 50" version="1.1" width="50px" height="50px">
<g id="surface1">
<path style=" " d="M 24.1875 0.09375 C 23.804688 0.09375 23.609375 0.277344 23.5 0.375 C 23.390625 0.472656 23.355469 0.535156 23.3125 0.59375 C 23.230469 0.714844 23.171875 0.804688 23.125 0.90625 C 23.03125 1.105469 22.957031 1.34375 22.84375 1.625 C 22.617188 2.1875 22.320313 2.941406 21.9375 3.78125 C 21.175781 5.464844 20.039063 7.476563 18.59375 8.875 C 18.59375 8.886719 18.59375 8.894531 18.59375 8.90625 C 16.40625 11.09375 16.21875 13.59375 16.1875 14.34375 C 15.878906 14.566406 12.367188 17.117188 8.96875 20.21875 C 8.953125 20.234375 8.953125 20.234375 8.9375 20.25 C 5.046875 23.429688 0.28125 28.5 0.28125 28.5 C -0.0117188 28.746094 -0.136719 29.140625 -0.0429688 29.507813 C 0.0507813 29.878906 0.351563 30.164063 0.722656 30.242188 C 1.097656 30.320313 1.484375 30.175781 1.71875 29.875 C 1.71875 29.875 6.515625 24.800781 10.21875 21.78125 C 10.238281 21.773438 10.261719 21.761719 10.28125 21.75 C 13.722656 18.601563 17.6875 15.71875 17.6875 15.71875 C 17.945313 15.527344 18.097656 15.226563 18.09375 14.90625 C 18.09375 14.90625 18.132813 12.179688 20 10.3125 C 21.757813 8.609375 22.9375 6.386719 23.75 4.59375 C 24.023438 3.988281 24.1875 3.558594 24.375 3.09375 C 24.523438 3.363281 24.660156 3.558594 24.8125 3.90625 C 25.316406 5.035156 25.78125 6.527344 25.9375 8.21875 C 25.789063 8.53125 25.8125 8.898438 26 9.1875 C 26 9.261719 26 9.332031 26 9.40625 C 26 13.042969 26.21875 14.375 26.21875 14.375 C 26.289063 14.75 26.566406 15.054688 26.9375 15.15625 C 26.9375 15.15625 32.167969 16.621094 34.5 17.96875 C 35.78125 18.695313 36.171875 19.488281 36.46875 20.3125 C 36.617188 20.726563 36.738281 21.152344 36.90625 21.59375 C 37.074219 22.035156 37.324219 22.558594 37.90625 22.875 C 41.203125 24.71875 44.046875 27.082031 45.53125 28.84375 C 45.640625 28.96875 45.78125 29.066406 45.9375 29.125 C 46.742188 29.449219 47.304688 29.78125 47.625 30.0625 C 47.945313 30.34375 47.992188 30.53125 48 30.625 C 48.007813 30.71875 47.988281 30.847656 47.75 31.125 C 47.511719 31.402344 47.0625 31.761719 46.40625 32.125 C 46.28125 32.203125 46.171875 32.3125 46.09375 32.4375 C 43.570313 36.027344 42.308594 36.632813 41 37.71875 C 40.992188 37.722656 40.976563 37.714844 40.96875 37.71875 C 40.417969 38.140625 39.957031 38.382813 39.3125 38.4375 C 38.664063 38.492188 37.746094 38.332031 36.40625 37.78125 C 36.398438 37.777344 36.382813 37.785156 36.375 37.78125 C 33.296875 36.449219 29.148438 35.09375 25.6875 35.09375 C 23.445313 35.09375 21.597656 36.277344 20.375 37.9375 C 19.152344 39.597656 18.5 41.75 18.5 43.90625 C 18.5 45.15625 18.40625 48.875 18.40625 48.875 C 18.390625 49.425781 18.824219 49.890625 19.375 49.90625 C 19.925781 49.921875 20.390625 49.488281 20.40625 48.9375 C 20.40625 48.9375 20.5 45.257813 20.5 43.90625 C 20.5 42.160156 21.039063 40.390625 21.96875 39.125 C 22.898438 37.859375 24.128906 37.09375 25.6875 37.09375 C 28.617188 37.09375 32.675781 38.359375 35.59375 39.625 C 35.605469 39.625 35.613281 39.625 35.625 39.625 C 37.164063 40.261719 38.40625 40.5 39.5 40.40625 C 40.59375 40.3125 41.480469 39.847656 42.21875 39.28125 C 42.230469 39.28125 42.238281 39.28125 42.25 39.28125 C 43.316406 38.390625 45.003906 37.324219 47.59375 33.6875 C 48.261719 33.296875 48.867188 32.894531 49.28125 32.40625 C 49.75 31.851563 50.066406 31.171875 50 30.4375 C 49.933594 29.703125 49.511719 29.0625 48.9375 28.5625 C 48.433594 28.121094 47.722656 27.777344 46.9375 27.4375 C 45.207031 25.421875 42.3125 23.046875 38.875 21.125 C 38.90625 21.140625 38.851563 21.140625 38.75 20.875 C 38.648438 20.609375 38.53125 20.148438 38.34375 19.625 C 37.964844 18.574219 37.21875 17.191406 35.5 16.21875 C 34.460938 15.617188 33.222656 15.117188 32.03125 14.6875 C 32.359375 13.976563 32.929688 12.527344 33.09375 10.90625 C 33.09375 10.894531 33.09375 10.886719 33.09375 10.875 C 33.300781 8.488281 33.164063 6.449219 32.9375 4.96875 C 32.824219 4.230469 32.707031 3.640625 32.5625 3.1875 C 32.492188 2.960938 32.414063 2.785156 32.3125 2.59375 C 32.261719 2.5 32.207031 2.40625 32.09375 2.28125 C 31.980469 2.15625 31.789063 1.90625 31.3125 1.90625 C 30.941406 1.90625 30.808594 2.003906 30.71875 2.0625 C 30.628906 2.121094 30.578125 2.175781 30.53125 2.21875 C 30.4375 2.304688 30.390625 2.382813 30.3125 2.46875 C 30.160156 2.644531 29.976563 2.867188 29.78125 3.125 C 29.386719 3.636719 28.902344 4.285156 28.40625 4.96875 C 28.121094 5.363281 27.867188 5.71875 27.59375 6.09375 C 27.335938 4.957031 27 3.933594 26.625 3.09375 C 26.269531 2.300781 25.910156 1.65625 25.59375 1.1875 C 25.4375 0.953125 25.300781 0.753906 25.15625 0.59375 C 25.082031 0.511719 25.011719 0.425781 24.90625 0.34375 C 24.800781 0.261719 24.707031 0.09375 24.1875 0.09375 Z M 30.90625 4.96875 C 30.929688 5.09375 30.949219 5.144531 30.96875 5.28125 C 31.167969 6.59375 31.28125 8.488281 31.09375 10.6875 C 31.09375 10.699219 31.09375 10.707031 31.09375 10.71875 C 30.929688 12.292969 30.230469 13.757813 30.09375 14.03125 C 29.246094 13.773438 28.496094 13.5625 28.15625 13.46875 C 28.121094 13.222656 28 12.535156 28 9.40625 C 28 9.238281 27.972656 9.070313 27.96875 8.90625 C 27.988281 8.882813 28.011719 8.871094 28.03125 8.84375 C 28.199219 8.636719 28.382813 8.378906 28.59375 8.09375 C 29.019531 7.523438 29.539063 6.835938 30.03125 6.15625 C 30.355469 5.710938 30.621094 5.351563 30.90625 4.96875 Z M 33 21 C 31.894531 21 31 21.894531 31 23 C 31 24.105469 31.894531 25 33 25 C 34.105469 25 35 24.105469 35 23 C 35 21.894531 34.105469 21 33 21 Z "/>
</g>
</svg>
