<?xml version="1.0" encoding="iso-8859-1"?>
<!-- Generator: Adobe Illustrator 19.2.1, SVG Export Plug-In . SVG Version: 6.00 Build 0)  -->
<svg xmlns="http://www.w3.org/2000/svg" xmlns:xlink="http://www.w3.org/1999/xlink" version="1.1" id="Layer_1" x="0px" y="0px" viewBox="0 0 50 50" style="enable-background:new 0 0 50 50;" xml:space="preserve" width="50px" height="50px">
<polygon points="27.5,32 22.5,32 23.5,29 26.5,29 "/>
<polygon points="33.442,32.595 29.206,30.671 31.207,28.515 33.749,29.669 "/>
<path style="fill:none;stroke:#000000;stroke-width:2;stroke-linecap:round;stroke-linejoin:round;stroke-miterlimit:10;" d="  M25,29.987C25,32.35,25,47,25,47"/>
<path style="fill:none;stroke:#000000;stroke-width:2;stroke-linecap:round;stroke-linejoin:round;stroke-miterlimit:10;" d="  M31.968,30.042C31.679,30.862,25,44.325,25,46.479"/>
<path style="fill:none;stroke:#000000;stroke-width:2;stroke-linecap:round;stroke-linejoin:round;stroke-miterlimit:10;" d="  M29.577,27.604c0.763,0.885,1.666,1.565,2.725,1.928c5.347,1.832,12.494-4.891,14.326-10.239c1.832-5.348-1.018-11.167-6.366-12.999  c-2.449-0.839-4.993-0.687-7.211,0.229"/>
<polygon points="17.155,35.999 21.39,34.075 19.389,31.918 16.848,33.072 "/>
<path style="fill:none;stroke:#000000;stroke-width:2;stroke-linecap:round;stroke-linejoin:round;stroke-miterlimit:10;" d="  M18.628,33.446C18.917,34.266,25,44.438,25,47"/>
<path style="fill:none;stroke:#000000;stroke-width:2;stroke-linecap:round;stroke-linejoin:round;stroke-miterlimit:10;" d="  M14.707,10.148c-1.628-0.279-3.346-0.164-5.014,0.424c-5.219,1.839-7.96,7.561-6.121,12.78c1.839,5.219,8.892,11.74,14.112,9.901  c1.949-0.687,3.365-2.443,4.281-4.645"/>
<path style="fill:none;stroke:#000000;stroke-width:2;stroke-linecap:round;stroke-linejoin:round;stroke-miterlimit:10;" d="M36,14  c0,6.075-4.925,15.4-11,15.4S14,20.075,14,14S18.925,3,25,3S36,7.925,36,14z"/>
</svg>
