<?xml version="1.0" encoding="utf-8"?>
<!-- Generator: Adobe Illustrator 17.0.0, SVG Export Plug-In . SVG Version: 6.00 Build 0)  -->
<!DOCTYPE svg PUBLIC "-//W3C//DTD SVG 1.1//EN" "http://www.w3.org/Graphics/SVG/1.1/DTD/svg11.dtd">
<svg xmlns="http://www.w3.org/2000/svg" xmlns:xlink="http://www.w3.org/1999/xlink" version="1.1" id="Layer_1" x="0px" y="0px" width="50px" height="50px" viewBox="0 0 50 50" enable-background="new 0 0 50 50" xml:space="preserve">

<path fill="none" stroke="#000000" stroke-width="2" stroke-linecap="round" stroke-miterlimit="10" d="M48,44  c-0.552,0-12.448,0-13,0s-1,0.448-1,1v3h15v-3C49,44.448,48.552,44,48,44z"/>
<circle fill="none" stroke="#000000" stroke-width="1.715" stroke-miterlimit="10" cx="6" cy="44" r="5"/>
<path fill="none" stroke="#000000" stroke-width="2" stroke-linecap="round" stroke-linejoin="round" stroke-miterlimit="10" d="  M9.318,48c0,0,1.195,0,3.8,0C18.848,48,29,46.159,29,40.348S20.573,26,13.118,26S2,30.711,2,36.522c0,1.348,0,4.168,0,4.168"/>
<path fill="none" stroke="#000000" stroke-width="2" stroke-miterlimit="10" d="M42,44c0,0-7.412-29.002-8-31  s-1.318-3.285-3.979-4.187c-2.484-0.841-16.896-5.688-16.896-5.688s-3.054-1.034-4.304,1.466c-1.175,2.351,0.396,4.246,2.048,4.904  c1.757,0.7,10.262,3.629,11.974,4.285c1.712,0.656,3.581,2.296,2.092,5.398c-0.81,1.687-3.427,6.737-3.427,6.737"/>
</svg>
