<?xml version="1.0" encoding="iso-8859-1"?>
<!-- Generator: Adobe Illustrator 21.1.0, SVG Export Plug-In . SVG Version: 6.00 Build 0)  -->
<svg xmlns="http://www.w3.org/2000/svg" xmlns:xlink="http://www.w3.org/1999/xlink" version="1.1" id="Layer_1" x="0px" y="0px" viewBox="0 0 50 50" style="enable-background:new 0 0 50 50;" xml:space="preserve" width="50px" height="50px">
<g>
	<g>
		<g>
			<g>
			</g>
		</g>
	</g>
</g>
<circle style="fill:none;stroke:#000000;stroke-width:2;stroke-miterlimit:10;" cx="18.5" cy="13.5" r="3.5"/>
<circle style="fill:none;stroke:#000000;stroke-width:2;stroke-miterlimit:10;" cx="26.5" cy="6.5" r="3.5"/>
<path style="fill:none;stroke:#000000;stroke-width:2;stroke-linejoin:round;stroke-miterlimit:10;" d="M23.875,18.625l0.75-3.696  c0.189-0.61,0.655-1.093,1.256-1.302l7.569-1.504c0.411-0.12,1.799-0.077,2.299,0.55c0.207,0.259,2.375,3.317,2.375,3.317"/>
<path style="fill:none;stroke:#000000;stroke-width:2;stroke-linecap:round;stroke-linejoin:round;stroke-miterlimit:10;" d="  M23.875,27c0,0,3.625-0.125,5.125-2.125"/>
<path style="fill:none;stroke:#000000;stroke-width:2;stroke-linejoin:round;stroke-miterlimit:10;" d="M40,20c1.105,0,2-0.895,2-2  s-0.895-2-2-2l-6.5,1h-6c-0.796,0.057-1.48,0.217-2.161,0.632L19.5,20.418c-0.298,0.17-0.546,0.413-0.723,0.707l-3.146,5.269  l-3.375,1.749c-1.026,0.411-1.524,1.574-1.114,2.601c0.313,0.781,1.064,1.258,1.857,1.258c0.248,0,0.499-0.047,0.742-0.144l4-2  c0.406-0.163,0.748-0.454,0.826-0.703L21.64,24l2.235,3c0,0,0.125,4-7.875,9.75C10.801,40.487,6,41,6,41s-0.005,4.156,4.797,4.922  C13.266,46.316,15,45,15,45s2,2,5,2s5-2,5-2s1,2,5,2s5-2,5-2s1.122,1,4,1c3.875,0,5-3,5-3c-9-8-15-18.125-15-18.125L28.375,21H33.5  L40,20z"/>
<path style="fill:none;stroke:#000000;stroke-width:2;stroke-linejoin:round;stroke-miterlimit:10;" d="M36.25,20.375l-1.111,3.375  c-0.218,0.808-0.178,1.664,0.116,2.448l2.491,6.123C37.914,32.77,38,33.246,38,33.725V37"/>
<path style="fill:none;stroke:#000000;stroke-width:2;stroke-linejoin:round;stroke-miterlimit:10;" d="M42,18.25  c0,0-1.064,3.377-1.625,4.5C40,23.5,39.625,24,38.375,24H38c-1.105,0-2-0.895-2-2v-1"/>
</svg>
