<?xml version="1.0" encoding="iso-8859-1"?>
<!-- Generator: Adobe Illustrator 21.0.1, SVG Export Plug-In . SVG Version: 6.00 Build 0)  -->
<svg xmlns="http://www.w3.org/2000/svg" xmlns:xlink="http://www.w3.org/1999/xlink" version="1.1" x="0px" y="0px" viewBox="0 0 50 50" style="enable-background:new 0 0 50 50;" xml:space="preserve" width="50px" height="50px">
<path style="fill:none;stroke:#000000;stroke-width:2;stroke-linecap:round;stroke-linejoin:round;stroke-miterlimit:10;" d="  M45.94,8.874c-2.536,2.536-5.631,1.638-6.042,1.227c-0.412-0.413-1.349-3.468,1.225-6.043C43.184,2,48,2,48,2S48,6.816,45.94,8.874z  "/>
<path style="fill:none;stroke:#000000;stroke-width:2;stroke-linecap:round;stroke-linejoin:round;stroke-miterlimit:10;" d="  M43.822,10.356c1.689,0.089,3.378,1.511,3.378,1.511c-0.264,1.707-2.561,4.201-5.053,4.739c-3.071,0.665-5.144-1.521-5.182-2.034  c-0.124-1.718,1.067-3.119,3.479-3.949"/>
<path style="fill:none;stroke:#000000;stroke-width:2;stroke-linecap:round;stroke-linejoin:round;stroke-miterlimit:10;" d="  M40.007,16.722c1.376,0.481,2.574,2.484,2.574,2.484c-0.826,1.516-3.764,3.246-6.291,2.91c-3.115-0.413-4.287-2.5-4.194-3.555  c0.388-1.888,3.804-3.586,5.726-2.778"/>
<path style="fill:none;stroke:#000000;stroke-width:2;stroke-linecap:round;stroke-linejoin:round;stroke-miterlimit:10;" d="  M34.93,21.799c1.376,0.481,2.574,2.484,2.574,2.484c-0.826,1.516-3.764,3.246-6.291,2.909c-3.115-0.413-4.287-2.499-4.194-3.555  c0.388-1.888,3.742-3.563,6.199-2.672"/>
<path style="fill:none;stroke:#000000;stroke-width:2;stroke-linecap:round;stroke-linejoin:round;stroke-miterlimit:10;" d="  M24.793,31.937c1.376,0.481,2.574,2.484,2.574,2.484c-0.826,1.516-3.764,3.246-6.291,2.909c-3.115-0.413-4.287-2.5-4.194-3.555  c0.388-1.888,3.742-3.563,6.199-2.672"/>
<path style="fill:none;stroke:#000000;stroke-width:2;stroke-linecap:round;stroke-linejoin:round;stroke-miterlimit:10;" d="  M39.378,9.556c-0.829,2.413-2.231,3.604-3.949,3.479c-0.513-0.037-2.7-2.11-2.034-5.182c0.538-2.492,3.032-4.789,4.739-5.053  c0,0,1.422,1.689,1.511,3.378"/>
<path style="fill:none;stroke:#000000;stroke-width:2;stroke-linecap:round;stroke-linejoin:round;stroke-miterlimit:10;" d="  M34.217,12.177c0.808,1.922-0.89,5.339-2.778,5.726c-1.055,0.093-3.141-1.079-3.555-4.194c-0.337-2.527,1.393-5.464,2.91-6.291  c0,0,2.003,1.198,2.484,2.574"/>
<path style="fill:none;stroke:#000000;stroke-width:2;stroke-linecap:round;stroke-linejoin:round;stroke-miterlimit:10;" d="  M29.033,16.781c0.891,2.457-0.784,5.812-2.672,6.199c-1.055,0.093-3.141-1.079-3.555-4.194c-0.337-2.527,1.393-5.464,2.909-6.291  c0,0,2.003,1.198,2.484,2.574"/>
<path style="fill:none;stroke:#000000;stroke-width:2;stroke-linecap:round;stroke-linejoin:round;stroke-miterlimit:10;" d="  M18.896,26.918c0.891,2.457-0.784,5.812-2.672,6.199c-1.055,0.093-3.141-1.079-3.555-4.194c-0.337-2.527,1.393-5.464,2.909-6.291  c0,0,2.003,1.198,2.484,2.574"/>
<path style="fill:none;stroke:#000000;stroke-width:2;stroke-linecap:round;stroke-linejoin:round;stroke-miterlimit:10;" d="  M19.722,37.008c1.376,0.481,2.574,2.484,2.574,2.484c-0.826,1.516-3.764,3.246-6.291,2.909c-3.115-0.413-4.287-2.5-4.194-3.555  c0.388-1.888,3.742-3.563,6.2-2.672"/>
<path style="fill:none;stroke:#000000;stroke-width:2;stroke-linecap:round;stroke-linejoin:round;stroke-miterlimit:10;" d="  M13.825,31.99c0.891,2.458-0.784,5.812-2.672,6.2c-1.055,0.093-3.141-1.079-3.555-4.194c-0.337-2.527,1.393-5.464,2.909-6.291  c0,0,2.003,1.198,2.484,2.574"/>
<g>
	<path d="M19.443,20.45c0.357-0.691,0.795-1.288,1.225-1.675c0.589,0.438,1.322,1.105,1.526,1.688   c0.16,0.458,0.624,0.727,1.083,0.66c-0.276,0.266-0.386,0.679-0.247,1.062c0.204,0.562,0.217,1.247,0.09,1.941l2.754,2.754   c0.694-0.127,1.379-0.114,1.941,0.089c0.383,0.141,0.796,0.03,1.062-0.247c-0.066,0.463,0.202,0.923,0.66,1.083   c0.57,0.199,1.231,0.909,1.688,1.525c-0.387,0.43-0.984,0.869-1.676,1.226l1.471,1.472c1.025-0.624,1.863-1.404,2.298-2.203   c0.169-0.311,0.162-0.688-0.02-0.992c-0.142-0.237-1.432-2.332-3.103-2.915c-0.382-0.134-0.788-0.022-1.051,0.25   c0.065-0.458-0.197-0.915-0.649-1.079c-0.576-0.209-1.213-0.308-1.87-0.302l13.961-13.961c0.391-0.391,0.391-1.023,0-1.414   s-1.023-0.391-1.414,0L25.212,23.375c0.006-0.658-0.093-1.295-0.302-1.871c-0.164-0.453-0.622-0.718-1.079-0.649   c0.273-0.263,0.384-0.67,0.25-1.051c-0.583-1.67-2.678-2.961-2.915-3.103c-0.304-0.182-0.681-0.189-0.992-0.02   c-0.799,0.435-1.578,1.274-2.202,2.299L19.443,20.45z"/>
	<path d="M27.41,31.245c-0.38,0.049-0.761,0.068-1.128,0.019c-2.575-0.341-3.318-1.918-3.332-2.425   c0.102-0.37,0.442-0.775,0.926-1.128l-1.588-1.588c-0.353,0.484-0.758,0.823-1.128,0.926c-0.507-0.014-2.084-0.757-2.425-3.333   c-0.049-0.367-0.031-0.747,0.019-1.128l-1.667-1.667c-0.318,0.998-0.468,2.054-0.334,3.059c0.348,2.627,1.75,4.145,3.099,4.754   L1.293,47.293c-0.391,0.391-0.391,1.023,0,1.414C1.488,48.902,1.744,49,2,49s0.512-0.098,0.707-0.293l18.568-18.568   c0.605,1.352,2.112,2.759,4.743,3.108c0.259,0.035,0.522,0.051,0.787,0.051c0.762,0,1.532-0.148,2.274-0.384L27.41,31.245z"/>
</g>
<line style="fill:none;stroke:#000000;stroke-width:2;stroke-linecap:round;stroke-linejoin:round;stroke-miterlimit:10;" x1="1" y1="1" x2="49" y2="49"/>
</svg>
