<?xml version="1.0" encoding="iso-8859-1"?>
<!-- Generator: Adobe Illustrator 21.1.0, SVG Export Plug-In . SVG Version: 6.00 Build 0)  -->
<svg xmlns="http://www.w3.org/2000/svg" xmlns:xlink="http://www.w3.org/1999/xlink" version="1.1" id="Layer_1" x="0px" y="0px" viewBox="0 0 50 50" style="enable-background:new 0 0 50 50;" xml:space="preserve" width="50px" height="50px">
<path style="fill:none;stroke:#000000;stroke-width:2;stroke-linecap:round;stroke-miterlimit:10;" d="M33.101,44.125L33.2,46h9.6  l0.716-13.606L47,31v-7c0-4.971-4.029-9-9-9s-9,4.029-9,9v7l3.484,1.394l0.321,6.105"/>
<path d="M34.16,45.14c0.02,0.55-0.4,1.02-0.95,1.05h-0.05c-0.53,0-0.97-0.42-1-0.95L32,42.17c0.7-0.24,1.35-0.52,1.95-0.85  L34.16,45.14z"/>
<circle style="fill:none;stroke:#000000;stroke-width:2;stroke-miterlimit:10;" cx="38" cy="8" r="4"/>
<path style="fill:none;stroke:#000000;stroke-width:2;stroke-linecap:round;stroke-linejoin:round;stroke-miterlimit:10;" d="M14,27  c0,4.905,0.593,13,12.444,13C37.111,40,38,31.121,38,28.857V26"/>
<path style="fill:none;stroke:#000000;stroke-width:2;stroke-linecap:round;stroke-linejoin:round;stroke-miterlimit:10;" d="M41,23  c0,1.656-1.344,3-3,3c-1.657,0-3-1.344-3-3s1.343-3,3-3C39.656,20,41,21.344,41,23z"/>
<circle cx="8" cy="7" r="2"/>
<circle cx="20" cy="7" r="2"/>
<path style="fill:none;stroke:#000000;stroke-width:2;stroke-linecap:round;stroke-linejoin:round;stroke-miterlimit:10;" d="M8,7H3  v8c0,6.075,4.925,11,11,11s11-4.925,11-11V7h-5"/>
</svg>
