<?xml version="1.0" encoding="utf-8"?>
<!-- Generator: Adobe Illustrator 20.1.0, SVG Export Plug-In . SVG Version: 6.00 Build 0)  -->
<svg xmlns="http://www.w3.org/2000/svg" xmlns:xlink="http://www.w3.org/1999/xlink" version="1.1" x="0px" y="0px" viewBox="0 0 50 50" style="enable-background:new 0 0 50 50;" xml:space="preserve" width="50px" height="50px">
<style type="text/css">
	.st0{fill:none;stroke:#000000;stroke-width:2;stroke-miterlimit:10;}
	.st1{fill:none;stroke:#000000;stroke-width:2;stroke-linecap:round;stroke-miterlimit:10;}
	.st2{fill:none;stroke:#000000;stroke-width:2;stroke-linecap:round;stroke-linejoin:round;stroke-miterlimit:10;}
	.st3{fill:none;stroke:#000000;stroke-linecap:round;stroke-miterlimit:10;}
	.st4{fill:none;stroke:#000000;stroke-width:3;stroke-linecap:round;stroke-miterlimit:10;}
	.st5{fill:#FFFFFF;}
	.st6{stroke:#000000;stroke-width:2;stroke-miterlimit:10;}
	.st7{fill:none;stroke:#000000;stroke-width:2;stroke-linejoin:round;stroke-miterlimit:10;}
	.st8{fill:none;}
</style>
<path d="M29,35h-3v-1c0-0.5-0.2-1.1-0.6-1.4C25.1,32.2,24.5,32,24,32h-4c-0.5,0-1.1,0.2-1.4,0.6C18.2,32.9,18,33.5,18,34v1h-3  c-1.6,0-3,1.4-3,3l0,7c0,1.6,1.4,3,3,3h14c1.6,0,3-1.4,3-3l0-7C32,36.4,30.6,35,29,35z M20,34h4v1h-4V34z M15,46c-0.6,0-1-0.4-1-1  l0-7c0-0.6,0.4-1,1-1h14c0.6,0,1,0.4,1,1l0,7c0,0.6-0.4,1-1,1H15z"/>
<line class="st0" x1="17" y1="37" x2="17" y2="46"/>
<line class="st0" x1="27" y1="37" x2="27" y2="46"/>
<path d="M12.5,2C9.5,2,7,4.5,7,7.5c0,3,2.5,5.5,5.5,5.5S18,10.5,18,7.5C18,4.5,15.5,2,12.5,2z M12.5,11C10.6,11,9,9.4,9,7.5  C9,5.6,10.6,4,12.5,4S16,5.6,16,7.5C16,9.4,14.4,11,12.5,11z"/>
<path d="M40.5,2c-3,0-5.5,2.5-5.5,5.5c0,3,2.5,5.5,5.5,5.5S46,10.5,46,7.5C46,4.5,43.5,2,40.5,2z M40.5,11C38.6,11,37,9.4,37,7.5  C37,5.6,38.6,4,40.5,4S44,5.6,44,7.5C44,9.4,42.4,11,40.5,11z"/>
<path d="M41.5,14H39c-1.8,0-3.6,0.7-4.9,2.1c0,0,0,0,0,0l-10.2,8.1c-1,1-1.2,2.6-0.3,3.8c0,0,0.1,0.1,0.1,0.1c0.5,0.5,1.2,0.9,2,0.9  c0.7,0,1.4-0.2,1.9-0.8L35,23v22c0,1.6,1.4,3,3,3h4c1.6,0,3-1.4,3-3l0-11c1.6,0,3-1.4,3-3l0-10.5C48,16.9,45.1,14,41.5,14z M46,31  c0,0.6-0.4,1-1,1h-1c-0.6,0-1,0.4-1,1l0,12c0,0.6-0.4,1-1,1h-4c-0.6,0-1-0.4-1-1l-0.1-24.5c0-0.6-0.4-1-1-1c-0.3,0-0.5,0.1-0.7,0.3  l-9,7c-0.1,0.1-0.4,0.2-0.5,0.2c-0.2,0-0.3-0.1-0.5-0.3c-0.2-0.4-0.2-0.7,0.2-1.1l10.2-8.1c0,0,0,0,0,0c0.9-1,2.1-1.5,3.5-1.5h2.5  c2.4,0,4.5,2.1,4.5,4.5L46,31z"/>
<rect x="2" y="29" width="31" height="2"/>
<path d="M14.5,14h-4C6.9,14,4,16.9,4,20.5V30h2v-9.5c0-2.4,2.1-4.5,4.5-4.5h4c2.4,0,4.5,2.1,4.5,4.5V30h2v-9.5  C21,16.9,18.1,14,14.5,14z"/>
</svg>
