<?xml version="1.0" encoding="iso-8859-1"?>
<!-- Generator: Adobe Illustrator 21.1.0, SVG Export Plug-In . SVG Version: 6.00 Build 0)  -->
<svg xmlns="http://www.w3.org/2000/svg" xmlns:xlink="http://www.w3.org/1999/xlink" version="1.1" id="Layer_1" x="0px" y="0px" viewBox="0 0 50 50" style="enable-background:new 0 0 50 50;" xml:space="preserve" width="50px" height="50px">
<g>
</g>
<path style="fill:none;stroke:#000000;stroke-width:2;stroke-miterlimit:10;" d="M13.95,30.49C16.825,27.725,20.706,26,25,26  s8.175,1.725,11.05,4.49l4.173-4.347C36.268,22.343,30.904,20,25,20s-11.268,2.343-15.223,6.143L13.95,30.49z"/>
<path style="fill:none;stroke:#000000;stroke-width:2;stroke-miterlimit:10;" d="M5.625,21.818C10.659,16.982,17.485,14,25,14  s14.341,2.982,19.375,7.818l4.152-4.325C42.414,11.621,34.125,8,25,8S7.586,11.621,1.473,17.493L5.625,21.818z"/>
<path style="fill:none;stroke:#000000;stroke-width:2;stroke-miterlimit:10;" d="M25,42l6.917-7.205C30.119,33.068,27.684,32,25,32  s-5.119,1.068-6.917,2.795L25,42z"/>
</svg>
