<?xml version="1.0" encoding="utf-8"?>
<!-- Generator: Adobe Illustrator 17.0.0, SVG Export Plug-In . SVG Version: 6.00 Build 0)  -->
<!DOCTYPE svg PUBLIC "-//W3C//DTD SVG 1.1//EN" "http://www.w3.org/Graphics/SVG/1.1/DTD/svg11.dtd">
<svg xmlns="http://www.w3.org/2000/svg" xmlns:xlink="http://www.w3.org/1999/xlink" version="1.1" id="Layer_1" x="0px" y="0px" width="50px" height="50px" viewBox="0 0 50 50" enable-background="new 0 0 50 50" xml:space="preserve">
<path fill="none" stroke="#000000" stroke-width="2" stroke-linecap="round" stroke-miterlimit="10" d="M31,39.2  c0,0-2.273,1.8-6,1.8s-6-1.8-6-1.8"/>
<path fill="none" stroke="#000000" stroke-width="2" stroke-linecap="round" stroke-miterlimit="10" d="M25,9c0-6.02,4-8,4-8"/>
<path fill="none" stroke="#000000" stroke-width="2" stroke-linecap="round" stroke-miterlimit="10" d="M23,9c-0.771-4.277-6-4-6-4"/>
<path fill="none" stroke="#000000" stroke-width="2" stroke-linecap="round" stroke-miterlimit="10" d="M49,31c0-2.209-1.791-4-4-4  c-0.018,0-0.035,0.005-0.053,0.005C44.399,16.977,35.692,9,25,9S5.601,16.977,5.053,27.005C5.035,27.005,5.018,27,5,27  c-2.209,0-4,1.791-4,4c0,2.111,1.642,3.822,3.715,3.971C7,45,16.467,49,25,49s18-4,20.285-14.029C47.358,34.822,49,33.111,49,31z"/>
<circle cx="33" cy="29" r="3"/>
<circle cx="17" cy="29" r="3"/>
</svg>
