<?xml version="1.0" encoding="iso-8859-1"?>
<!-- Generator: Adobe Illustrator 22.1.0, SVG Export Plug-In . SVG Version: 6.00 Build 0)  -->
<svg xmlns="http://www.w3.org/2000/svg" xmlns:xlink="http://www.w3.org/1999/xlink" version="1.1" id="Layer_1" x="0px" y="0px" viewBox="0 0 50 50" style="enable-background:new 0 0 50 50;" xml:space="preserve" width="50px" height="50px">
<path style="fill:none;stroke:#000000;stroke-width:2;stroke-linecap:round;stroke-miterlimit:10;" d="M8,14L4,49h42l-4-35H8z"/>
<path style="fill:none;stroke:#000000;stroke-width:2;stroke-linecap:round;stroke-miterlimit:10;" d="M34,19c0-1.2,0-6.8,0-8  c0-5-4-9-9-9s-9,4-9,9c0,1.2,0,6.8,0,8"/>
<circle cx="34" cy="19" r="2"/>
<circle cx="16" cy="19" r="2"/>
<circle cx="29" cy="41" r="1"/>
<circle cx="21" cy="41" r="1"/>
<polyline style="fill:none;stroke:#000000;stroke-width:2;stroke-linecap:round;stroke-miterlimit:10;" points="16,49 16,33 34,33   34,49 "/>
<line style="fill:none;stroke:#000000;stroke-width:2;stroke-linecap:round;stroke-miterlimit:10;" x1="25" y1="33" x2="25" y2="49"/>
</svg>
