<svg fill="#000000" xmlns="http://www.w3.org/2000/svg" viewBox="0 0 50 50" width="50px" height="50px"><path d="M 22.5 0 C 19.472656 0 17 2.472656 17 5.5 C 17 8.527344 19.472656 11 22.5 11 C 25.527344 11 28 8.527344 28 5.5 C 28 2.472656 25.527344 0 22.5 0 Z M 22.5 2 C 24.445313 2 26 3.554688 26 5.5 C 26 7.445313 24.445313 9 22.5 9 C 20.554688 9 19 7.445313 19 5.5 C 19 3.554688 20.554688 2 22.5 2 Z M 26.71875 11.09375 C 26.371094 11.097656 26.019531 11.144531 25.65625 11.25 L 25.65625 11.21875 C 25.65625 11.21875 22.664063 12.019531 21.875 12.21875 C 21.867188 12.21875 21.847656 12.21875 21.84375 12.21875 C 20.773438 12.460938 19.476563 13.136719 18.8125 14.53125 C 18.800781 14.554688 18.792969 14.570313 18.78125 14.59375 L 16.3125 19.25 L 13.46875 17.28125 C 12.128906 16.386719 10.378906 16.828125 9.5 18 C 8.703125 19.0625 8.863281 20.441406 9.59375 21.40625 L 0.46875 48.53125 L 0.4375 48.59375 C 0.171875 49.015625 0 49.46875 0 50 L 2 50 C 2 49.984375 2.359375 49.207031 3.46875 48.40625 C 4.578125 47.605469 6.265625 46.714844 8.375 45.90625 C 12.589844 44.289063 18.484375 43 25 43 C 29.824219 43 34.289063 43.726563 38 44.75 C 38.457031 45.007813 38.972656 45.160156 39.5 45.1875 C 40.242188 45.421875 40.960938 45.652344 41.625 45.90625 C 43.734375 46.714844 45.421875 47.605469 46.53125 48.40625 C 47.640625 49.207031 48 49.984375 48 50 L 50 50 C 50 49.21875 49.664063 48.582031 49.125 48 L 42.875 17.9375 C 44.003906 16.9375 44.4375 15.25 43.5 14 C 42.621094 12.828125 40.871094 12.386719 39.53125 13.28125 L 35.625 15.90625 L 29.3125 11.8125 L 29.25 11.75 L 29.21875 11.78125 C 28.769531 11.46875 28.316406 11.300781 27.71875 11.1875 C 27.40625 11.128906 27.066406 11.089844 26.71875 11.09375 Z M 26.71875 13.09375 C 26.921875 13.09375 27.136719 13.117188 27.34375 13.15625 C 27.761719 13.234375 28.171875 13.464844 28.09375 13.40625 C 28.113281 13.417969 28.136719 13.429688 28.15625 13.4375 L 35.0625 17.9375 C 35.394531 18.15625 35.824219 18.15625 36.15625 17.9375 L 40.65625 14.9375 C 41.117188 14.632813 41.585938 14.761719 41.90625 15.1875 C 42.117188 15.46875 42.042969 16.046875 41.53125 16.46875 L 41.5 16.46875 C 41.492188 16.476563 41.507813 16.492188 41.5 16.5 L 36.03125 20.15625 C 35.859375 20.269531 35.828125 20.3125 35.59375 20.3125 C 35.515625 20.3125 35.242188 20.214844 35.15625 20.15625 L 32.25 18.25 C 31.886719 18 31.40625 18.015625 31.058594 18.289063 C 30.714844 18.5625 30.589844 19.027344 30.75 19.4375 L 33.15625 26.21875 C 33.175781 26.261719 33.195313 26.304688 33.21875 26.34375 L 36.8125 33.4375 C 36.8125 33.449219 36.8125 33.457031 36.8125 33.46875 L 40.90625 41.25 C 40.917969 41.261719 40.925781 41.269531 40.9375 41.28125 C 41.246094 41.851563 40.953125 42.640625 40.34375 43 C 40.039063 43.152344 39.933594 43.183594 39.75 43.1875 C 39.414063 43.082031 39.097656 42.972656 38.75 42.875 C 38.652344 42.785156 38.566406 42.699219 38.5 42.5625 C 38.5 42.550781 38.5 42.542969 38.5 42.53125 L 34.375 34.53125 C 34.347656 34.476563 34.316406 34.425781 34.28125 34.375 L 30.28125 29.1875 C 29.980469 28.816406 29.453125 28.710938 29.03125 28.9375 L 24.8125 31.21875 C 24.546875 31.371094 24.363281 31.640625 24.320313 31.945313 C 24.277344 32.25 24.378906 32.558594 24.59375 32.78125 L 29.5625 37.96875 L 29.59375 38 C 30.09375 38.585938 30.03125 39.277344 29.5625 39.8125 C 29.550781 39.820313 29.542969 39.804688 29.53125 39.8125 C 29.175781 40.089844 28.960938 40.1875 28.59375 40.1875 C 28.230469 40.1875 27.925781 40.097656 27.625 39.8125 L 27.59375 39.78125 L 21.21875 33.09375 C 20.800781 32.675781 20.773438 31.9375 21.1875 31.40625 C 21.199219 31.394531 21.207031 31.386719 21.21875 31.375 L 23.8125 27.6875 C 23.996094 27.421875 24.042969 27.085938 23.9375 26.78125 L 21.75 20.28125 C 21.628906 19.894531 21.285156 19.621094 20.878906 19.585938 C 20.476563 19.550781 20.089844 19.765625 19.90625 20.125 L 18.03125 23.625 C 17.8125 23.894531 17.589844 24.105469 17.5 24.125 C 17.4375 24.140625 17.371094 24.160156 17.3125 24.1875 C 17.234375 24.1875 16.929688 24.121094 16.84375 24.0625 L 11.40625 20.40625 C 11.023438 20.117188 10.878906 19.476563 11.09375 19.1875 C 11.414063 18.761719 11.882813 18.632813 12.34375 18.9375 L 16.125 21.53125 C 16.363281 21.699219 16.664063 21.753906 16.945313 21.679688 C 17.226563 21.609375 17.464844 21.417969 17.59375 21.15625 L 20.59375 15.46875 C 20.605469 15.449219 20.617188 15.425781 20.625 15.40625 C 20.964844 14.660156 21.605469 14.34375 22.3125 14.1875 C 22.324219 14.175781 22.332031 14.167969 22.34375 14.15625 C 23.183594 13.945313 26.15625 13.15625 26.15625 13.15625 C 26.167969 13.15625 26.175781 13.15625 26.1875 13.15625 C 26.316406 13.117188 26.515625 13.09375 26.71875 13.09375 Z M 41.09375 19.1875 L 46.6875 46.125 C 45.503906 45.40625 44.046875 44.714844 42.34375 44.0625 C 42.304688 44.046875 42.257813 44.046875 42.21875 44.03125 C 43.078125 43.039063 43.347656 41.582031 42.6875 40.34375 L 42.6875 40.3125 L 38.59375 32.5625 L 38.59375 32.53125 L 35 25.4375 L 33.625 21.5625 L 34.03125 21.84375 L 34.0625 21.84375 C 34.566406 22.171875 35.082031 22.3125 35.59375 22.3125 C 36.160156 22.3125 36.726563 22.128906 37.15625 21.84375 Z M 11.28125 22.71875 L 15.75 25.71875 C 16.261719 26.0625 16.789063 26.1875 17.3125 26.1875 C 17.378906 26.1875 17.609375 26.199219 17.90625 26.09375 C 17.914063 26.089844 17.929688 26.097656 17.9375 26.09375 C 18.820313 25.90625 19.328125 25.292969 19.6875 24.8125 C 19.722656 24.761719 19.753906 24.710938 19.78125 24.65625 L 20.59375 23.125 L 21.90625 26.9375 L 19.625 30.1875 L 19.625 30.21875 L 19.59375 30.21875 C 18.632813 31.488281 18.609375 33.328125 19.78125 34.5 L 26.03125 41.03125 C 25.683594 41.023438 25.351563 41 25 41 C 18.21875 41 12.117188 42.351563 7.65625 44.0625 C 5.996094 44.699219 4.578125 45.390625 3.40625 46.09375 Z M 29.25 31.09375 L 32.625 35.46875 L 32.71875 35.625 L 36.09375 42.21875 C 34.445313 41.851563 32.683594 41.554688 30.84375 41.34375 C 30.863281 41.335938 30.886719 41.324219 30.90625 41.3125 C 32.148438 40.070313 32.265625 37.996094 31.03125 36.625 C 31.03125 36.613281 31.03125 36.605469 31.03125 36.59375 L 26.9375 32.34375 Z"/></svg>