<?xml version="1.0" encoding="UTF-8"?>
<svg xmlns="http://www.w3.org/2000/svg" xmlns:xlink="http://www.w3.org/1999/xlink" viewBox="0 0 50 50" version="1.1" width="50px" height="50px">
<g id="surface1">
<path style=" " d="M 42.441406 1.960938 C 42.273438 1.964844 42.105469 1.980469 41.9375 2.007813 C 41.488281 2.085938 41.050781 2.253906 40.644531 2.515625 L 27.480469 11 L 6.5 11 C 4.578125 11 3 12.578125 3 14.5 C 3 16.421875 4.578125 18 6.5 18 L 20 18 L 20 44 C 20 45.644531 21.355469 47 23 47 C 24.644531 47 26 45.644531 26 44 L 26 30.964844 L 29.519531 28.769531 C 29.808594 28.589844 29.984375 28.273438 29.988281 27.933594 L 29.988281 28.683594 L 43.792969 24.890625 C 44.007813 24.832031 44.199219 24.703125 44.332031 24.523438 C 45.277344 24.019531 46 23.140625 46 22 C 46 20.355469 44.644531 19 43 19 C 42.804688 19 42.65625 19.039063 42.496094 19.074219 C 42.398438 19.070313 42.300781 19.082031 42.207031 19.109375 L 29.996094 22.457031 L 30 17.703125 L 44.4375 8.398438 C 46.054688 7.359375 46.527344 5.171875 45.484375 3.558594 C 44.804688 2.5 43.628906 1.933594 42.441406 1.960938 Z M 42.578125 3.949219 C 42.671875 3.949219 42.769531 3.960938 42.859375 3.984375 C 43.234375 4.0625 43.578125 4.289063 43.804688 4.640625 C 44.261719 5.351563 44.0625 6.261719 43.355469 6.71875 L 28.457031 16.316406 C 28.171875 16.5 28 16.816406 28 17.15625 L 27.996094 23.769531 C 27.992188 24.082031 28.140625 24.375 28.386719 24.566406 C 28.636719 24.753906 28.957031 24.816406 29.261719 24.734375 L 42.617188 21.066406 C 42.65625 21.0625 42.695313 21.054688 42.734375 21.042969 C 42.855469 21.011719 42.9375 21 43 21 C 43.566406 21 44 21.433594 44 22 C 44 22.46875 43.6875 22.839844 43.261719 22.957031 C 42.738281 23.101563 42.425781 23.636719 42.558594 24.164063 L 42.324219 23.222656 L 28.726563 26.953125 C 28.292969 27.074219 27.992188 27.464844 27.988281 27.917969 L 27.988281 27.367188 L 24.46875 29.5625 C 24.179688 29.746094 24 30.066406 24 30.410156 L 24 44 C 24 44.566406 23.566406 45 23 45 C 22.433594 45 22 44.566406 22 44 L 22 17 C 22 16.449219 21.550781 16 21 16 L 6.5 16 C 5.660156 16 5 15.339844 5 14.5 C 5 13.660156 5.660156 13 6.5 13 L 27.769531 13 C 27.964844 13 28.152344 12.945313 28.3125 12.839844 L 41.730469 4.195313 C 41.996094 4.023438 42.289063 3.945313 42.578125 3.949219 Z M 33.5 29 C 30.472656 29 28 31.472656 28 34.5 C 28 37.527344 30.472656 40 33.5 40 C 36.527344 40 39 37.527344 39 34.5 C 39 31.472656 36.527344 29 33.5 29 Z M 33.5 31 C 35.445313 31 37 32.554688 37 34.5 C 37 36.445313 35.445313 38 33.5 38 C 31.554688 38 30 36.445313 30 34.5 C 30 32.554688 31.554688 31 33.5 31 Z "/>
</g>
</svg>
