<?xml version="1.0" encoding="utf-8"?>
<!-- Generator: Adobe Illustrator 17.1.0, SVG Export Plug-In . SVG Version: 6.00 Build 0)  -->
<!DOCTYPE svg PUBLIC "-//W3C//DTD SVG 1.1//EN" "http://www.w3.org/Graphics/SVG/1.1/DTD/svg11.dtd">
<svg xmlns="http://www.w3.org/2000/svg" xmlns:xlink="http://www.w3.org/1999/xlink" version="1.1" id="Layer_1" x="0px" y="0px" width="50px" height="50px" viewBox="0 0 50 50" style="enable-background:new 0 0 50 50;" xml:space="preserve">
<g>
	<path style="fill:none;stroke:#000000;stroke-width:2;stroke-linecap:round;stroke-miterlimit:10;" d="M16,44l18,0 M44,44   c0,0,0.9,0,1.3,0c1.5,0,3.7-0.8,3.7-3.3v-7.9c0-0.9-0.2-1.9-0.5-2.8c0,0-1.7-4.7-3.2-8.3c-1.5-3.7-3.6-4.8-7.6-4.8H5.9   C3.2,17,1,19.2,1,21.8v20.4c0,1,0.8,1.8,1.8,1.8H6"/>
</g>
<g>
	<circle style="fill:none;stroke:#000000;stroke-width:2;stroke-miterlimit:10;" cx="39" cy="44" r="5"/>
</g>
<g>
	<circle style="fill:none;stroke:#000000;stroke-width:2;stroke-miterlimit:10;" cx="11" cy="44" r="5"/>
</g>
<path style="fill:none;stroke:#000000;stroke-width:2;stroke-linecap:round;stroke-miterlimit:10;" d="M13.7,30H7.3  C6,30,5,29,5,27.7v-4.4C5,22,6,21,7.3,21h6.4c1.3,0,2.3,1,2.3,2.3v4.4C16,29,15,30,13.7,30z"/>
<path style="fill:none;stroke:#000000;stroke-width:2;stroke-linecap:round;stroke-miterlimit:10;" d="M29.7,30h-7.4  C21,30,20,29,20,27.7v-4.4c0-1.3,1-2.3,2.3-2.3h7.4c1.3,0,2.3,1,2.3,2.3v4.4C32,29,31,30,29.7,30z"/>
<path style="fill:none;stroke:#000000;stroke-width:2;stroke-linecap:round;stroke-miterlimit:10;" d="M48,30h-9.7  C37,30,36,29,36,27.7v-4.4c0-1.3,1-2.3,2.3-2.3h6.3"/>
</svg>
