<?xml version="1.0" encoding="UTF-8"?>
<svg width="119px" height="22px" viewBox="0 0 119 22" version="1.1" xmlns="http://www.w3.org/2000/svg" xmlns:xlink="http://www.w3.org/1999/xlink">
    <!-- Generator: Sketch 52.5 (67469) - http://www.bohemiancoding.com/sketch -->
    <title>Artboard Copy 3</title>
    <desc>Created with Sketch.</desc>
    <g id="Artboard-Copy-3" stroke="none" stroke-width="1" fill="none" fill-rule="evenodd">
        <path d="M49.9135255,7.44334841 C49.009364,7.44334841 47.9017662,7.6995275 47.2763878,8.73177855 C46.7715643,7.92556788 45.8900068,7.44334841 44.782409,7.44334841 C44.0440104,7.44334841 43.1473836,7.66938878 42.5672133,8.51327286 L42.5672133,7.63171539 L41,7.63171539 L41,14.8499381 L42.5822826,14.8499381 L42.5822826,10.8490234 C42.5822826,9.61333602 43.4337014,8.94274957 44.4508831,8.94274957 C45.5132729,8.94274957 46.1311166,9.6208707 46.1311166,10.8339541 L46.1311166,14.8499381 L47.7133992,14.8499381 L47.7133992,10.8490234 C47.7133992,9.61333602 48.5648179,8.94274957 49.5819996,8.94274957 C50.6443894,8.94274957 51.2622331,9.6208707 51.2622331,10.8339541 L51.2622331,14.8499381 L52.8445157,14.8499381 L52.8445157,10.3140612 C52.8445157,8.62629304 51.6314324,7.44334841 49.9135255,7.44334841 Z M61.578805,14.8499381 L61.578805,7.63171539 L60.0040571,7.63171539 L60.0040571,8.50573818 C59.4992336,7.86529044 58.7683697,7.44334841 57.7361186,7.44334841 C55.7168246,7.44334841 54.1270073,9.03316572 54.1270073,11.2408267 C54.1270073,13.4484877 55.7168246,15.0383051 57.7361186,15.0383051 C58.7683697,15.0383051 59.4992336,14.6238977 60.0040571,13.98345 L60.0040571,14.8499381 L61.578805,14.8499381 Z M57.9244856,8.92768021 C59.2204504,8.92768021 60.1020079,9.92225787 60.1020079,11.2408267 C60.1020079,12.5593956 59.2204504,13.5539733 57.9244856,13.5539733 C56.5682434,13.5539733 55.7469633,12.5066528 55.7469633,11.2408267 C55.7469633,9.97500062 56.5682434,8.92768021 57.9244856,8.92768021 Z M68.3691479,9.4400384 L69.047269,8.21188569 C68.2938011,7.72966622 67.2615501,7.45088308 66.1238135,7.45088308 C64.2853518,7.45088308 63.1400805,8.33997523 63.1400805,9.76402961 C63.1400805,10.9319049 63.9839646,11.6627688 65.5888513,11.8812745 L66.3423192,11.9792253 C67.2088073,12.0997802 67.5930759,12.3634939 67.5930759,12.7779013 C67.5930759,13.3203982 67.0355097,13.6594588 65.9505159,13.6594588 C64.7826406,13.6594588 64.0819154,13.3203982 63.5695572,12.9210602 L62.8386933,14.1040048 C63.8860138,14.8876115 65.1970479,15.0307704 65.9354465,15.0307704 C68.015018,15.0307704 69.2205667,14.0587968 69.2205667,12.6724158 C69.2205667,11.4367284 68.2862664,10.7736766 66.7115185,10.5401016 L65.9655852,10.4270814 C65.3025335,10.3291305 64.7751059,10.1935063 64.7751059,9.68114814 C64.7751059,9.16878995 65.2723947,8.8221947 66.1388828,8.8221947 C67.0430444,8.8221947 67.9321365,9.17632463 68.3691479,9.4400384 Z M75.4006008,9.06330444 L75.4006008,7.63171539 L72.6353735,7.63171539 L72.6353735,5.44665841 L71.0530909,5.44665841 L71.0530909,7.63171539 L69.6139671,7.63171539 L69.6139671,9.06330444 L71.0530909,9.06330444 L71.0530909,12.2354044 C71.0530909,14.1567476 72.0099951,15.0383051 73.6450205,15.0383051 C74.5567167,15.0383051 75.2800459,14.7143139 75.8602162,14.3225105 L75.2348378,13.0642191 C74.8053611,13.3354676 74.2703989,13.5539733 73.7806447,13.5539733 C73.1477317,13.5539733 72.6353735,13.1697046 72.6353735,12.2052657 L72.6353735,9.06330444 L75.4006008,9.06330444 Z M79.8024507,7.44334841 C77.6776712,7.44334841 76.2084088,8.98042297 76.2084088,11.2408267 C76.2084088,13.5313692 77.730414,15.0383051 79.9004016,15.0383051 C80.9929301,15.0383051 81.9875077,14.7745913 82.8690652,14.0211234 L82.0854585,12.8984562 C81.4826842,13.3806756 80.7216816,13.6594588 79.9983524,13.6594588 C78.9811707,13.6594588 78.0544052,13.1169619 77.8509688,11.820997 L83.1855217,11.820997 C83.2081258,11.6401647 83.2156604,11.4367284 83.2156604,11.2332921 C83.2156604,8.98042297 81.8142101,7.44334841 79.8024507,7.44334841 Z M79.772312,8.84479874 C80.7744244,8.84479874 81.4299415,9.50031583 81.6032391,10.622983 L77.8585035,10.622983 C78.0167318,9.56812795 78.6496448,8.84479874 79.772312,8.84479874 Z M88.2278191,7.44334841 C87.3462617,7.44334841 86.6153978,7.75227025 86.1331783,8.44546074 L86.1331783,7.63171539 L84.5734997,7.63171539 L84.5734997,14.8499381 L86.1482477,14.8499381 L86.1482477,10.8791621 C86.1482477,9.64347474 86.8640422,8.94274957 87.8661545,8.94274957 C88.2504232,8.94274957 88.7326427,9.03316572 89.0641685,9.20646334 L89.4409025,7.64678474 C89.0792379,7.50362584 88.7100386,7.44334841 88.2278191,7.44334841 Z M93.4283452,7.44334841 C91.1378027,7.44334841 89.6308669,9.0783738 89.6308669,11.2408267 C89.6308669,13.4032797 91.1378027,15.0383051 93.4283452,15.0383051 C94.513339,15.0383051 95.4627086,14.6465017 96.1257604,13.8854991 L95.1537868,12.8005053 C94.6941713,13.229982 94.0763276,13.5539733 93.3831371,13.5539733 C92.1700538,13.5539733 91.2508229,12.6046037 91.2508229,11.2408267 C91.2508229,9.87704979 92.1700538,8.92768021 93.3831371,8.92768021 C94.0763276,8.92768021 94.6037552,9.19139399 95.1161134,9.67361346 L96.1257604,8.59615433 C95.4853126,7.83515173 94.513339,7.44334841 93.4283452,7.44334841 Z M104.076444,14.8499381 L104.076444,7.63171539 L102.501696,7.63171539 L102.501696,8.50573818 C101.996873,7.86529044 101.266009,7.44334841 100.233758,7.44334841 C98.2144637,7.44334841 96.6246464,9.03316572 96.6246464,11.2408267 C96.6246464,13.4484877 98.2144637,15.0383051 100.233758,15.0383051 C101.266009,15.0383051 101.996873,14.6238977 102.501696,13.98345 L102.501696,14.8499381 L104.076444,14.8499381 Z M100.422125,8.92768021 C101.71809,8.92768021 102.599647,9.92225787 102.599647,11.2408267 C102.599647,12.5593956 101.71809,13.5539733 100.422125,13.5539733 C99.0658824,13.5539733 98.2446024,12.5066528 98.2446024,11.2408267 C98.2446024,9.97500062 99.0658824,8.92768021 100.422125,8.92768021 Z M109.608496,7.44334841 C108.726938,7.44334841 107.996074,7.75227025 107.513855,8.44546074 L107.513855,7.63171539 L105.954176,7.63171539 L105.954176,14.8499381 L107.528924,14.8499381 L107.528924,10.8791621 C107.528924,9.64347474 108.244719,8.94274957 109.246831,8.94274957 C109.6311,8.94274957 110.113319,9.03316572 110.444845,9.20646334 L110.821579,7.64678474 C110.459914,7.50362584 110.090715,7.44334841 109.608496,7.44334841 Z M114.620655,7.44334841 C112.601361,7.44334841 111.011543,9.03316572 111.011543,11.2408267 C111.011543,13.4484877 112.601361,15.0383051 114.620655,15.0383051 C115.652906,15.0383051 116.38377,14.6238977 116.888593,13.98345 L116.888593,14.8499381 L118.463341,14.8499381 L118.463341,4 L116.888593,4 L116.888593,8.50573818 C116.38377,7.86529044 115.652906,7.44334841 114.620655,7.44334841 Z M114.809022,8.92768021 C116.104986,8.92768021 116.986544,9.92225787 116.986544,11.2408267 C116.986544,12.5593956 116.104986,13.5539733 114.809022,13.5539733 C113.452779,13.5539733 112.631499,12.5066528 112.631499,11.2408267 C112.631499,9.97500062 113.452779,8.92768021 114.809022,8.92768021 Z" id="mastercard" fill="#FFFFFF"></path>
        <path d="M10.56,0 C4.73748,0 6.57457423e-17,4.75862946 0,10.6071429 C0,16.4556562 4.73748,21.2142857 10.56,21.2142857 C12.7612709,21.2142857 14.8062651,20.5325269 16.5,19.370466 C18.1935204,20.5319647 20.2384043,21.2142857 22.44,21.2142857 C28.2643093,21.2142857 33,16.4574535 33,10.6071429 C33,4.75683222 28.2643093,0 22.44,0 C20.2384043,0 18.1935204,0.682321038 16.5,1.84381975 C14.8062651,0.681758859 12.7612709,0 10.56,0 Z M22.44,1.32589286 C27.5509285,1.32589286 31.68,5.47339775 31.68,10.6071429 C31.68,15.740888 27.5509285,19.8883929 22.44,19.8883929 C20.6575294,19.8883929 19.0006648,19.3751808 17.590547,18.5003488 C19.7510254,16.5566966 21.12,13.7426156 21.12,10.6071429 C21.12,7.4716701 19.7510254,4.65758914 17.590547,2.71393694 C19.0006648,1.83910488 20.6575294,1.32589286 22.44,1.32589286 Z" id="Shape" fill="#FFFFFF" fill-rule="nonzero"></path>
    </g>
</svg>