<?xml version="1.0" encoding="UTF-8"?>
<svg width="90px" height="22px" viewBox="0 0 90 22" version="1.1" xmlns="http://www.w3.org/2000/svg" xmlns:xlink="http://www.w3.org/1999/xlink">
    <!-- Generator: Sketch 52.5 (67469) - http://www.bohemiancoding.com/sketch -->
    <title>Artboard Copy 5</title>
    <desc>Created with Sketch.</desc>
    <g id="Artboard-Copy-5" stroke="none" stroke-width="1" fill="none" fill-rule="evenodd">
        <path d="M1.046,19 C0.8993326,19 0.77100055,18.9450006 0.661,18.835 C0.55099945,18.7249994 0.496,18.5966674 0.496,18.45 L0.496,4.172 C0.496,4.01066586 0.54733282,3.87500055 0.65,3.765 C0.75266718,3.65499945 0.88466586,3.6 1.046,3.6 L7.844,3.6 C9.70667598,3.6 11.0926621,3.98132952 12.002,4.744 C12.9113379,5.50667048 13.366,6.59199296 13.366,8 C13.366,8.70400352 13.1790019,9.3126641 12.805,9.826 C12.4309981,10.3393359 12.0166689,10.7133322 11.562,10.948 C12.1633363,11.2120013 12.6693313,11.6483303 13.08,12.257 C13.4906687,12.8656697 13.696,13.5513295 13.696,14.314 C13.696,15.7953407 13.2083382,16.9466626 12.233,17.768 C11.2576618,18.5893374 9.86067576,19 8.042,19 L1.046,19 Z M7.382,9.694 C7.92466938,9.694 8.3426652,9.5473348 8.636,9.254 C8.9293348,8.9606652 9.076,8.57933568 9.076,8.11 C9.076,7.65533106 8.93300143,7.28500143 8.647,6.999 C8.36099857,6.71299857 7.93933612,6.57 7.382,6.57 L4.632,6.57 L4.632,9.694 L7.382,9.694 Z M7.58,16.03 C8.15200286,16.03 8.59566509,15.8650017 8.911,15.535 C9.22633491,15.2049984 9.384,14.7980024 9.384,14.314 C9.384,13.8153308 9.22266828,13.4010017 8.9,13.071 C8.57733172,12.7409984 8.13733612,12.576 7.58,12.576 L4.632,12.576 L4.632,16.03 L7.58,16.03 Z M21.308,19.22 C19.4599908,19.22 18.0410049,18.7910043 17.051,17.933 C16.060995,17.0749957 15.5220004,15.8540079 15.434,14.27 C15.4193333,14.0793324 15.412,13.7493357 15.412,13.28 C15.412,12.8106643 15.4193333,12.4806676 15.434,12.29 C15.5220004,10.7353256 16.0756616,9.52167103 17.095,8.649 C18.1143384,7.77632897 19.5186577,7.34 21.308,7.34 C23.0973423,7.34 24.5016616,7.77632897 25.521,8.649 C26.5403384,9.52167103 27.0939996,10.7353256 27.182,12.29 C27.2113335,12.6713352 27.226,13.0013319 27.226,13.28 C27.226,13.5586681 27.2113335,13.8886648 27.182,14.27 C27.0939996,15.8540079 26.5550049,17.0749957 25.565,17.933 C24.574995,18.7910043 23.1560092,19.22 21.308,19.22 Z M21.308,16.448 C21.9093363,16.448 22.3566652,16.2610019 22.65,15.887 C22.9433348,15.5129981 23.1119998,14.9373372 23.156,14.16 C23.1706667,14.0133326 23.178,13.7200022 23.178,13.28 C23.178,12.8399978 23.1706667,12.5466674 23.156,12.4 C23.1119998,11.6373295 22.9433348,11.0653352 22.65,10.684 C22.3566652,10.3026648 21.9093363,10.112 21.308,10.112 C20.7066637,10.112 20.2593348,10.3026648 19.966,10.684 C19.6726652,11.0653352 19.5040002,11.6373295 19.46,12.4 L19.438,13.28 L19.46,14.16 C19.5040002,14.9373372 19.6726652,15.5129981 19.966,15.887 C20.2593348,16.2610019 20.7066637,16.448 21.308,16.448 Z M29.866,19 C29.7193326,19 29.5910005,18.9450006 29.481,18.835 C29.3709994,18.7249994 29.316,18.5966674 29.316,18.45 L29.316,8.11 C29.316,7.94866586 29.3709994,7.81666718 29.481,7.714 C29.5910005,7.61133282 29.7193326,7.56 29.866,7.56 L32.572,7.56 C32.7333341,7.56 32.8653328,7.61133282 32.968,7.714 C33.0706672,7.81666718 33.122,7.94866586 33.122,8.11 L33.122,8.946 C33.518002,8.46199758 34.0276635,8.0733348 34.651,7.78 C35.2743364,7.4866652 35.9893293,7.34 36.796,7.34 C37.6320042,7.34 38.3763301,7.53066476 39.029,7.912 C39.6816699,8.29333524 40.1949981,8.85799626 40.569,9.606 C40.9430019,10.3540037 41.13,11.2559947 41.13,12.312 L41.13,18.45 C41.13,18.5966674 41.0786672,18.7249994 40.976,18.835 C40.8733328,18.9450006 40.7413341,19 40.58,19 L37.654,19 C37.4926659,19 37.3570005,18.9486672 37.247,18.846 C37.1369994,18.7433328 37.082,18.6113341 37.082,18.45 L37.082,12.444 C37.082,11.7839967 36.9243349,11.2780018 36.609,10.926 C36.2936651,10.5739982 35.8353363,10.398 35.234,10.398 C34.6473304,10.398 34.185335,10.5776649 33.848,10.937 C33.510665,11.2963351 33.342,11.7986634 33.342,12.444 L33.342,18.45 C33.342,18.5966674 33.2906672,18.7249994 33.188,18.835 C33.0853328,18.9450006 32.9533341,19 32.792,19 L29.866,19 Z M44.078,5.976 C43.9166659,5.976 43.7846672,5.92100055 43.682,5.811 C43.5793328,5.70099945 43.528,5.56533414 43.528,5.404 L43.528,3.358 C43.528,3.19666586 43.5829994,3.06100055 43.693,2.951 C43.8030005,2.84099945 43.9313326,2.786 44.078,2.786 L46.828,2.786 C46.9893341,2.786 47.1249994,2.84099945 47.235,2.951 C47.3450005,3.06100055 47.4,3.19666586 47.4,3.358 L47.4,5.404 C47.4,5.56533414 47.3450005,5.70099945 47.235,5.811 C47.1249994,5.92100055 46.9893341,5.976 46.828,5.976 L44.078,5.976 Z M44.078,19 C43.9313326,19 43.8030005,18.9450006 43.693,18.835 C43.5829994,18.7249994 43.528,18.5966674 43.528,18.45 L43.528,8.11 C43.528,7.94866586 43.5829994,7.81666718 43.693,7.714 C43.8030005,7.61133282 43.9313326,7.56 44.078,7.56 L46.828,7.56 C46.9893341,7.56 47.1249994,7.61133282 47.235,7.714 C47.3450005,7.81666718 47.4,7.94866586 47.4,8.11 L47.4,18.45 C47.4,18.6113341 47.3450005,18.7433328 47.235,18.846 C47.1249994,18.9486672 46.9893341,19 46.828,19 L44.078,19 Z M51.8,19 C51.6386659,19 51.5030005,18.9486672 51.393,18.846 C51.2829994,18.7433328 51.228,18.6113341 51.228,18.45 L51.228,10.552 L49.578,10.552 C49.4166659,10.552 49.2810005,10.5006672 49.171,10.398 C49.0609994,10.2953328 49.006,10.1633341 49.006,10.002 L49.006,8.11 C49.006,7.94866586 49.0609994,7.81666718 49.171,7.714 C49.2810005,7.61133282 49.4166659,7.56 49.578,7.56 L51.228,7.56 L51.228,6.9 C51.228,5.433326 51.6533291,4.3700033 52.504,3.71 C53.3546709,3.0499967 54.5719921,2.72 56.156,2.72 L61.986,2.72 C62.1473341,2.72 62.2793328,2.77133282 62.382,2.874 C62.4846672,2.97666718 62.536,3.10866586 62.536,3.27 L62.536,5.162 C62.536,5.3086674 62.4846672,5.43699945 62.382,5.547 C62.2793328,5.65700055 62.1473341,5.712 61.986,5.712 L56.332,5.712 C55.8626643,5.712 55.529001,5.81833227 55.331,6.031 C55.132999,6.24366773 55.034,6.5699978 55.034,7.01 L55.034,7.56 L61.986,7.56 C62.1473341,7.56 62.2793328,7.61133282 62.382,7.714 C62.4846672,7.81666718 62.536,7.94866586 62.536,8.11 L62.536,18.45 C62.536,18.5966674 62.4846672,18.7249994 62.382,18.835 C62.2793328,18.9450006 62.1473341,19 61.986,19 L59.302,19 C59.1406659,19 59.0050005,18.9486672 58.895,18.846 C58.7849994,18.7433328 58.73,18.6113341 58.73,18.45 L58.73,10.552 L55.034,10.552 L55.034,18.45 C55.034,18.5966674 54.9826672,18.7249994 54.88,18.835 C54.7773328,18.9450006 54.6453341,19 54.484,19 L51.8,19 Z M70.368,19.22 C68.6959916,19.22 67.3430052,18.7763378 66.309,17.889 C65.2749948,17.0016622 64.7213337,15.7660079 64.648,14.182 L64.626,13.302 L64.648,12.4 C64.706667,10.8159921 65.2566615,9.57667114 66.298,8.682 C67.3393385,7.78732886 68.6959916,7.34 70.368,7.34 C71.6440064,7.34 72.7146623,7.56733106 73.58,8.022 C74.4453377,8.47666894 75.0906645,9.01566355 75.516,9.639 C75.9413355,10.2623364 76.1686665,10.8306641 76.198,11.344 C76.2126667,11.5053341 76.1613339,11.6409995 76.044,11.751 C75.9266661,11.8610005 75.7873341,11.916 75.626,11.916 L72.678,11.916 C72.5166659,11.916 72.3920004,11.8793337 72.304,11.806 C72.2159996,11.7326663 72.1353337,11.6153341 72.062,11.454 C71.9006659,11.0433313 71.6916679,10.7426676 71.435,10.552 C71.178332,10.3613324 70.852002,10.266 70.456,10.266 C69.326661,10.266 68.7400002,11.0139925 68.696,12.51 L68.674,13.346 L68.696,14.072 C68.7106667,14.8346705 68.8646652,15.3956649 69.158,15.755 C69.4513348,16.1143351 69.8839971,16.294 70.456,16.294 C70.8813355,16.294 71.2149988,16.2023343 71.457,16.019 C71.6990012,15.8356658 71.9006659,15.5313355 72.062,15.106 C72.1353337,14.9446659 72.2159996,14.8273337 72.304,14.754 C72.3920004,14.6806663 72.5166659,14.644 72.678,14.644 L75.626,14.644 C75.7726674,14.644 75.9046661,14.6953328 76.022,14.798 C76.1393339,14.9006672 76.198,15.0253326 76.198,15.172 C76.198,15.6266689 75.9963353,16.1729968 75.593,16.811 C75.1896646,17.4490032 74.5480044,18.0099976 73.668,18.494 C72.7879956,18.9780024 71.6880066,19.22 70.368,19.22 Z M83.59,19.22 C81.7419908,19.22 80.3230049,18.7910043 79.333,17.933 C78.342995,17.0749957 77.8040004,15.8540079 77.716,14.27 C77.7013333,14.0793324 77.694,13.7493357 77.694,13.28 C77.694,12.8106643 77.7013333,12.4806676 77.716,12.29 C77.8040004,10.7353256 78.3576616,9.52167103 79.377,8.649 C80.3963384,7.77632897 81.8006577,7.34 83.59,7.34 C85.3793423,7.34 86.7836616,7.77632897 87.803,8.649 C88.8223384,9.52167103 89.3759996,10.7353256 89.464,12.29 C89.4933335,12.6713352 89.508,13.0013319 89.508,13.28 C89.508,13.5586681 89.4933335,13.8886648 89.464,14.27 C89.3759996,15.8540079 88.8370049,17.0749957 87.847,17.933 C86.856995,18.7910043 85.4380092,19.22 83.59,19.22 Z M83.59,16.448 C84.1913363,16.448 84.6386652,16.2610019 84.932,15.887 C85.2253348,15.5129981 85.3939998,14.9373372 85.438,14.16 C85.4526667,14.0133326 85.46,13.7200022 85.46,13.28 C85.46,12.8399978 85.4526667,12.5466674 85.438,12.4 C85.3939998,11.6373295 85.2253348,11.0653352 84.932,10.684 C84.6386652,10.3026648 84.1913363,10.112 83.59,10.112 C82.9886637,10.112 82.5413348,10.3026648 82.248,10.684 C81.9546652,11.0653352 81.7860002,11.6373295 81.742,12.4 L81.72,13.28 L81.742,14.16 C81.7860002,14.9373372 81.9546652,15.5129981 82.248,15.887 C82.5413348,16.2610019 82.9886637,16.448 83.59,16.448 Z" id="Bonifico" fill="#FFFFFF"></path>
    </g>
</svg>