<?xml version="1.0" encoding="UTF-8"?>
<svg width="55px" height="22px" viewBox="0 0 55 22" version="1.1" xmlns="http://www.w3.org/2000/svg" xmlns:xlink="http://www.w3.org/1999/xlink">
    <!-- Generator: Sketch 52.5 (67469) - http://www.bohemiancoding.com/sketch -->
    <title>Artboard Copy 2</title>
    <desc>Created with Sketch.</desc>
    <g id="Artboard-Copy-2" stroke="none" stroke-width="1" fill="none" fill-rule="evenodd">
        <path d="M35.8521291,2 C31.0758563,2 28.6335796,4.32211576 28.6335796,7.27375566 C28.6335796,12.6128397 34.8896558,11.8942315 34.8896558,14.638009 C34.8896558,15.1012451 34.5287284,16.2058824 31.9059887,16.2058824 C29.277234,16.2058824 27.574859,15.2081448 27.574859,15.2081448 L26.7567568,18.8190045 C26.7567568,18.8190045 28.4591317,19.7692308 31.7134941,19.7692308 C34.9678564,19.7692308 39.4614038,17.3105211 39.4614038,13.7352941 C39.4614038,9.43552036 33.2053276,9.09700264 33.2053276,7.17873303 C33.2053276,6.1988126 33.9753062,5.46832579 36.2371184,5.46832579 C37.7048901,5.46832579 39.3651565,6.56108597 39.3651565,6.56108597 L40.1351351,2.85520362 C40.1351351,2.85520362 37.9515235,2 35.8521291,2 Z M15.2020771,2 L11.0591842,14.1497947 C11.0591842,14.1497947 10.7761664,13.1153884 10.6737988,12.4756104 C8.30729205,7.20193059 4.45945946,5.25270095 4.45945946,5.25270095 L8.12062062,19.0288462 L13.1306306,19.0288462 L20.0675676,2 L15.2020771,2 Z M22.0625889,2 L19.3243243,19.0288462 L23.9695946,19.0288462 L26.7567568,2 L22.0625889,2 Z M46.7902306,2 L39.3918919,19.0288462 L43.8786263,19.0288462 L44.7855195,16.5893204 L50.4178031,16.5893204 L50.8951153,19.0288462 L55,19.0288462 L51.5156211,2 L46.7902306,2 Z M0,2 C0,2 9.04306404,4.80932741 11.1486486,11.625 L9.59075888,3.71002538 C9.59075888,3.71002538 8.9213539,2 7.10787206,2 L0,2 Z M48.5585586,6.44230769 L49.7972973,13.1057692 L46.0810811,13.1057692 L48.5585586,6.44230769 Z" id="Shape" fill="#FFFFFF" fill-rule="nonzero"></path>
    </g>
</svg>