<?xml version="1.0" encoding="UTF-8"?>
<svg width="98px" height="22px" viewBox="0 0 98 22" version="1.1" xmlns="http://www.w3.org/2000/svg" xmlns:xlink="http://www.w3.org/1999/xlink">
    <!-- Generator: Sketch 52.5 (67469) - http://www.bohemiancoding.com/sketch -->
    <title>Artboard Copy 4</title>
    <desc>Created with Sketch.</desc>
    <g id="Artboard-Copy-4" stroke="none" stroke-width="1" fill="none" fill-rule="evenodd">
        <path d="M8.09868932,4.42346001 C8.63367909,4.2022281 9.25229807,4.11177806 9.82939901,4.11177806 C10.9806353,4.11177806 11.956013,4.46764708 12.665082,5.17641956 C13.420414,5.88667482 13.8201736,6.90594302 13.9497692,8.14673968 C14.0402192,9.03522601 13.9497692,10.0094175 13.6846468,11.0289822 C13.4631183,12.0482504 13.1087321,12.9334746 12.6200053,13.6885101 C12.0894639,14.618811 11.3803948,15.3302525 10.4930947,15.8154206 C9.78402571,16.2590706 8.98717565,16.4803026 8.09868932,16.5695664 L8.09868932,14.7973386 C8.41126095,14.7068886 8.71938421,14.5761067 8.98717565,14.4426558 C9.56398003,14.0870834 10.0518171,13.5553557 10.4500939,12.8474729 C10.8486672,12.1375142 11.1591629,11.3845547 11.3803948,10.5411451 C11.6016268,9.69892174 11.6467035,8.90088545 11.6016268,8.14673968 C11.5123629,7.34959307 11.2484267,6.72889818 10.8035905,6.24224729 C10.3169396,5.75352049 9.69594812,5.53228858 8.98717565,5.53228858 C8.67667993,5.53228858 8.3661842,5.5761791 8.09868932,5.66544291 L8.09868932,4.42346001 Z M0.25355668,20.8257599 L3.31195439,7.39378014 C3.40240443,6.8620525 3.48929578,6.37540161 3.57707681,5.84248775 C3.62363634,5.30987044 3.66871308,4.82203332 3.71052769,4.29030569 L5.83951413,4.29030569 L5.66128306,6.10790673 C6.32735125,5.444211 6.99223321,4.9101109 7.65711517,4.60080141 C7.79056606,4.51035137 7.9676109,4.46764708 8.09868932,4.42346001 L8.09868932,5.66544291 C7.79056606,5.75352049 7.48007033,5.93056533 7.16720215,6.10790673 C6.59365991,6.50648004 6.10493311,7.08447064 5.74936065,7.79235344 C5.35078734,8.50231215 5.04029161,9.34216304 4.82024593,10.2736502 C4.59782779,11.2502141 4.55275105,12.0019874 4.59782779,12.6241651 C4.64171831,13.3329376 4.90832352,13.863479 5.35078734,14.307129 C5.79443739,14.7057024 6.37124177,14.9281205 7.07912457,14.9281205 C7.4335108,14.9281205 7.79056606,14.88423 8.09868932,14.7961524 L8.09868932,16.5683801 L7.70011601,16.5683801 C6.85907889,16.5683801 6.1930107,16.3913353 5.57320548,16.0808396 C4.99758733,15.7703439 4.46467347,15.2825067 4.02102342,14.6618118 L2.60169913,20.8233874 L0.25474291,20.8233874 L0.25474291,20.8257599 L0.25355668,20.8257599 Z" id="Fill-4" fill="#FFFFFF"></path>
        <path d="M64.9784217,6.19717054 C64.7121131,6.19717054 64.4908811,6.24224729 64.2254622,6.28524813 L64.2254622,4.55661434 C64.3565406,4.5115376 64.4455078,4.46883331 64.5359579,4.42464624 C65.1545769,4.11296429 65.8660184,3.98099619 66.6189779,3.98099619 C67.7714004,3.98099619 68.7028876,4.33538243 69.3665833,5.00056095 C70.0326515,5.66662914 70.4312248,6.64082059 70.5204886,7.92550777 C70.7417206,10.3199132 70.2980705,12.3587461 69.1453514,13.9990058 C68.0380056,15.6846387 66.5309003,16.5268621 64.667926,16.5268621 C64.5371441,16.5268621 64.3577268,16.482675 64.2266484,16.482675 L64.2266484,14.1763472 C64.4920674,14.1324567 64.7571898,13.9990058 64.9796079,13.8219609 C65.3781812,13.5114652 65.688677,13.0678152 65.9979865,12.4468237 C66.3096684,11.7819418 66.5759771,11.0289822 66.7533185,10.2306494 C66.9303633,9.43261309 66.9745504,8.76773113 66.9303633,8.19181642 C66.8864728,7.52693446 66.6640547,7.03820767 66.3547452,6.72889818 C65.9968002,6.37540161 65.5531502,6.19717054 64.9784217,6.19717054 Z M64.2254622,6.28524813 C63.5143172,6.50766627 62.8933258,7.08447064 62.4069714,7.92550777 C61.6967162,9.12211736 61.4304075,10.4542537 61.5659343,11.9162823 C61.6528257,12.6704281 61.8310567,13.2472325 62.2296301,13.6434333 C62.5828301,14.0443791 63.0718534,14.265611 63.6916586,14.265611 C63.8698897,14.265611 64.0460449,14.2202377 64.2254622,14.1763472 L64.2254622,16.4814888 C63.559394,16.4387845 62.9825896,16.2602569 62.4947525,15.9939482 C61.8752438,15.6834525 61.3874067,15.1517249 61.0342067,14.4880291 L59.6139927,20.8257599 L55.9334173,20.8257599 L58.7717694,7.97177074 C59.1249694,6.33032487 59.3473875,5.0895282 59.4366513,4.29149192 L62.7613577,4.29149192 L62.6732801,5.75352049 C63.2038215,5.26568337 63.6904724,4.86711006 64.2242759,4.55572467 L64.2242759,6.28524813 L64.2254622,6.28524813 Z" id="Fill-5" fill="#FFFFFF"></path>
        <path d="M78.8089748,10.5853322 C78.719711,10.5411451 78.6316334,10.5411451 78.5438524,10.5411451 L78.145279,10.5411451 C77.5681781,10.5411451 77.036747,10.5853322 76.5928004,10.7184865 L76.5928004,8.76773113 C77.0806376,8.72354406 77.6574419,8.72354406 78.2333566,8.72354406 L79.2526248,8.72354406 C79.3418886,8.27989401 79.4299662,7.97058451 79.4299662,7.70308963 C79.475043,7.48185772 79.475043,7.30688878 79.475043,7.12836116 C79.4299662,6.77278869 79.2979981,6.50766627 79.0313929,6.3315111 C78.8089748,6.1541697 78.4557748,6.06371966 78.0121247,6.06371966 C77.4792109,6.06371966 77.0806376,6.19717054 76.8152186,6.41958868 C76.7250651,6.50766627 76.6381737,6.55155678 76.5928004,6.68589734 L76.5928004,4.2022281 C77.036747,4.11177806 77.5242876,4.11177806 78.0121247,4.11177806 C79.5631206,4.11177806 80.7170259,4.3341962 81.5592492,4.86711006 C82.3560993,5.40002393 82.7997493,6.15298347 82.8890131,7.17254823 C82.9340899,7.48185772 82.9340899,7.79353967 82.8890131,8.14792591 C82.8439364,8.45842163 82.7558588,8.85669838 82.6654088,9.25764415 L81.7351078,13.3353101 C81.6019535,13.8231472 81.5592492,14.3106877 81.4687992,14.8436016 C81.4246121,15.374143 81.4246121,15.8619801 81.4246121,16.3937078 L78.0560152,16.3937078 L78.0560152,15.5514844 C78.0560152,15.2421749 78.0999057,14.9755697 78.0999057,14.665074 C77.6574419,15.283693 77.1245281,15.7739025 76.5928004,16.0402112 L76.5928004,14.1763472 C76.9486695,13.9990058 77.3018695,13.7338834 77.6574419,13.3341238 C78.2333566,12.6250548 78.6328196,11.6938642 78.8089748,10.5853322 Z M76.5928004,10.7184865 C76.1064461,10.8516408 75.7078728,11.0301685 75.3523003,11.2952909 C74.5969683,11.7819418 74.2900313,12.4038229 74.3757364,13.1128919 C74.3757364,13.5114652 74.5088907,13.8219609 74.7763856,14.0443791 C74.9979141,14.265611 75.3072236,14.3548748 75.7078728,14.3548748 C76.0183685,14.3548748 76.327678,14.3095015 76.5928004,14.1775334 L76.5928004,16.0402112 L76.5026469,16.0843983 C75.9291047,16.3945974 75.3060373,16.5719388 74.5539675,16.5719388 C73.4896225,16.5719388 72.6473992,16.2602569 71.9834069,15.685825 C71.3173387,15.1099103 70.9641387,14.3557645 70.8748749,13.3792006 C70.7417206,11.8720953 71.3173387,10.7196727 72.5581354,9.92133988 C73.5335131,9.30064499 74.8644632,8.90207168 76.5928004,8.76891736 L76.5928004,10.7184865 Z M76.5928004,4.2022281 L76.5928004,6.68589734 C76.4169418,6.90712925 76.327678,7.21643874 76.2384142,7.57201121 L72.7375527,7.57201121 C72.8268165,6.46229297 73.3585441,5.62125584 74.244658,5.00056095 C74.907464,4.60198764 75.6616098,4.3341962 76.5928004,4.2022281 Z" id="Fill-6" fill="#FFFFFF"></path>
        <polygon id="Fill-7" fill="#FFFFFF" points="83.5100046 20.7827591 86.4349514 16.3495207 84.3068546 4.2022281 87.9420567 4.2022281 88.9613249 12.53846 93.6599823 4.2022281 97.1202154 4.2022281 89.5823164 16.8373578 87.4103291 20.7827591"></polygon>
        <path d="M20.9120501,5.444211 C20.6015544,5.444211 20.3349492,5.48691528 20.0268259,5.57499287 L20.0268259,4.02488671 C20.3803225,3.97862373 20.7785992,3.97862373 21.1771725,3.97862373 C22.5962003,3.97862373 23.7062151,4.33330653 24.5481419,4.99937472 C25.4345523,5.70814719 25.8782023,6.68352488 26.0101704,7.92432154 C26.1006205,8.90088545 26.0101704,9.96434072 25.6984885,11.0716865 C25.4333661,12.1802185 25.0347927,13.1558928 24.5018789,13.953929 C23.8820737,14.88423 23.172115,15.5491119 22.2868908,15.9488715 C21.6638234,16.2590706 20.9108639,16.4375983 20.0256397,16.5244896 L20.0256397,14.9755697 C20.3791362,14.8854162 20.7347087,14.7531516 20.9998311,14.577293 C21.532745,14.265611 21.976395,13.7777739 22.3737821,13.1140781 C22.8174322,12.3587461 23.1303004,11.5165228 23.350346,10.5862218 C23.5715779,9.61084416 23.6608418,8.8139941 23.6169512,8.10373884 C23.5265012,7.17254823 23.2622684,6.50766627 22.8174322,6.10909296 C22.3737821,5.66544291 21.7551631,5.444211 20.9120501,5.444211 Z M20.0268259,5.5761791 C19.7142543,5.66662914 19.3607577,5.79859724 19.050262,5.97593863 C18.5173481,6.37540161 18.0309938,6.90712925 17.6312343,7.61619828 C17.2326609,8.28108024 16.9200893,9.07822685 16.6997471,10.0536045 C16.4785152,11.0301685 16.4334384,11.8720953 16.4785152,12.5811643 C16.521516,13.3783109 16.8320117,13.9551153 17.2756618,14.3999516 C17.7643886,14.8436016 18.38538,15.0648335 19.1801542,15.0648335 C19.4918361,15.0648335 19.7581448,15.0197568 20.0244534,14.9755697 L20.0244534,16.5268621 C19.7118818,16.5268621 19.3583853,16.5707526 19.003999,16.5707526 C17.5849713,16.5707526 16.4334384,16.2175526 15.5912151,15.4634068 C14.703915,14.7531516 14.2163744,13.7350696 14.1282968,12.44801 C14.0402192,11.3857409 14.1282968,10.3210994 14.4814968,9.16956657 C14.794365,8.01595781 15.2368288,7.0414698 15.8566341,6.19835677 C16.4322522,5.44539723 17.1413212,4.91248336 18.0298076,4.51272383 C18.6066119,4.29267815 19.315681,4.11415052 20.0244534,4.02725917 L20.0244534,5.5761791 L20.0268259,5.5761791 Z" id="Fill-8" fill="#FFFFFF"></path>
        <path d="M28.4487629,12.4038229 C28.3606853,12.6250548 28.3144224,12.8023962 28.3144224,12.9785514 C28.2702353,13.1558928 28.2702353,13.2902333 28.3144224,13.4233876 C28.3606853,13.9109282 28.5377302,14.265611 28.8912267,14.4868429 C29.2444267,14.7531516 29.7334501,14.8412291 30.4434088,14.8412291 C31.3737097,14.8412291 32.083965,14.6629981 32.6153961,14.3083153 C33.1471237,13.9100385 33.3695419,13.4222014 33.3256513,12.8465833 C33.3256513,12.4919005 33.1471237,12.1802185 32.8357383,11.9150961 C32.5264288,11.6487874 31.9054374,11.2941046 30.9300597,10.8504546 C29.689263,10.2736502 28.8031492,9.74310881 28.3144224,9.25527169 C27.783881,8.81162164 27.518462,8.23600349 27.4733852,7.61382582 C27.3853077,6.55037055 27.7847706,5.70814719 28.626994,4.99937472 C29.5142941,4.33330653 30.7112002,3.97862373 32.2183056,3.97862373 C33.5931462,3.97862373 34.6115247,4.20104187 35.2764067,4.60080141 C35.9854757,4.99937472 36.339862,5.57499287 36.4291258,6.41721622 L36.4291258,6.86086627 C36.4291258,6.99283437 36.4291258,7.21406628 36.384049,7.52693446 L34.2117652,7.52693446 L34.2117652,6.86086627 C34.1678747,6.41721622 33.9917195,6.06282999 33.6361471,5.84248775 C33.3268376,5.62006961 32.8369245,5.48691528 32.1729323,5.48691528 C31.4211589,5.48691528 30.8431683,5.66544291 30.444595,5.97593863 C30.0033174,6.28524813 29.8247898,6.72889818 29.8677907,7.26062581 C29.9128674,7.57112153 30.0460217,7.8813207 30.3577037,8.10255261 C30.6231227,8.36915782 31.2880046,8.72235783 32.3072728,9.21019495 C33.7265971,9.87626314 34.7019748,10.4518813 35.1002515,10.8955313 C35.4988248,11.3371055 35.7642438,11.9139099 35.8105068,12.5787918 C35.8985844,13.6876204 35.4570102,14.6629981 34.3914791,15.4171438 C33.3719143,16.1701034 31.9970736,16.5683801 30.3114407,16.5683801 C28.9816768,16.5683801 27.962112,16.3020715 27.1640757,15.8596077 C26.40993,15.3705843 26.0113567,14.7057024 25.9232791,13.8195885 C25.8805748,13.6410609 25.8805748,13.4210152 25.9232791,13.1547065 C25.9683558,12.9322884 26.0125429,12.6668694 26.0564334,12.401747 L28.4499491,12.401747 L28.4499491,12.4038229 L28.4487629,12.4038229 Z" id="Fill-9" fill="#FFFFFF"></path>
        <path d="M43.031979,16.3937078 C42.5907014,16.4387845 42.1921281,16.4814888 41.8353694,16.5256759 C41.4821694,16.5256759 41.1265969,16.5695664 40.8172874,16.5695664 C39.930877,16.5695664 39.2671813,16.4387845 38.866532,16.1282888 C38.4237717,15.8607939 38.2025398,15.3717705 38.157463,14.7068886 C38.1135725,14.4868429 38.157463,14.0870834 38.2025398,13.5995428 C38.2455406,13.0678152 38.3786949,12.5372738 38.4679587,11.9589866 L39.843096,5.93056533 L37.6257354,5.93056533 L38.0243087,4.37838327 L40.196296,4.37838327 L40.8172874,1.63048129 L43.1654299,1.05367691 L42.4587333,4.37838327 L45.0731844,4.37838327 L44.7199844,5.93056533 L42.1031608,5.93056533 L40.7731003,12.226778 C40.639946,12.7119461 40.5518684,13.0678152 40.5518684,13.2890471 C40.5067917,13.5553557 40.4626046,13.7326971 40.5067917,13.8646652 C40.5067917,14.2190515 40.639946,14.4414696 40.8611779,14.5749205 C41.0835961,14.7519653 41.4821694,14.8412291 42.0150832,14.8412291 C42.1912384,14.8412291 42.4587333,14.7973386 42.7238557,14.7519653 C42.944198,14.7519653 43.2116928,14.6629981 43.434111,14.618811 L43.031979,16.3937078 Z" id="Fill-10" fill="#FFFFFF"></path>
        <path d="M50.7033289,8.9459622 L53.7175395,8.9459622 C53.7626163,8.54649922 53.807693,8.23718972 53.807693,8.01477158 C53.8530663,7.79353967 53.8530663,7.61619828 53.807693,7.43885688 C53.7626163,6.77278869 53.4974939,6.28524813 53.0535473,5.93175156 C52.5660067,5.57736533 51.9450152,5.35613342 51.1481652,5.35613342 C51.0147143,5.35613342 50.8376695,5.40121016 50.7045151,5.40121016 L50.7045151,3.93829191 L51.1920557,3.93829191 C52.7433481,3.93829191 53.9399577,4.24849108 54.7391802,4.82321955 C55.4921397,5.40121016 55.9787906,6.3315111 56.0689441,7.61738451 C56.1143174,8.05984833 56.1143174,8.54738889 56.0689441,9.03641224 C56.0689441,9.5239528 55.9776044,10.0536045 55.846526,10.5874081 L50.7045151,10.5874081 L50.7045151,8.9459622 L50.7033289,8.9459622 Z M50.7033289,16.4814888 L50.7033289,14.6638877 C50.9684513,14.5761067 51.2362428,14.4426558 51.4562885,14.3095015 C51.9892023,13.9551153 52.3874791,13.4233876 52.6098972,12.7596919 L55.2258311,12.7596919 C54.9153354,13.9551153 54.2516396,14.8863059 53.2297024,15.5514844 C52.5197437,16.039025 51.6775204,16.3495207 50.7033289,16.4814888 Z M47.5998545,8.9459622 L50.7033289,8.9459622 L50.7033289,10.5862218 L47.2012812,10.5862218 C47.0681268,10.9409046 47.025126,11.2514004 46.9800492,11.6069728 C46.9361587,11.9162823 46.9361587,12.226778 46.9361587,12.4919005 C47.025126,13.2472325 47.2893587,13.8219609 47.7330088,14.2202377 C48.2208459,14.618811 48.8415408,14.8424154 49.6837642,14.8424154 C50.0372607,14.8424154 50.391647,14.7973386 50.7033289,14.6638877 L50.7033289,16.4814888 C50.3047556,16.5256759 49.8611056,16.5707526 49.4162693,16.5707526 C47.9984278,16.5707526 46.8895992,16.2175526 46.0473758,15.5514844 C45.2505258,14.8863059 44.7626887,13.9121144 44.6749076,12.6692419 C44.5832714,11.7389409 44.6749076,10.6754857 44.9851068,9.47768983 C45.2505258,8.32497075 45.6941758,7.30688878 46.182013,6.46229297 C46.7146303,5.66781537 47.4225131,5.00145062 48.2647364,4.60198764 C48.9749917,4.2022281 49.773028,4.02725917 50.7033289,3.93710568 L50.7033289,5.3988377 C49.9942599,5.48810151 49.3744547,5.75352049 48.8869141,6.28524813 C48.2635502,6.8620525 47.8222726,7.7493526 47.5998545,8.9459622 Z" id="Fill-11" fill="#FFFFFF"></path>
    </g>
</svg>